<?xml version="1.0" encoding="UTF-8" standalone="no" ?>
<!DOCTYPE svg PUBLIC "-//W3C//DTD SVG 1.1//EN" "http://www.w3.org/Graphics/SVG/1.1/DTD/svg11.dtd">
<svg xmlns="http://www.w3.org/2000/svg" xmlns:xlink="http://www.w3.org/1999/xlink" version="1.1" width="1080" height="1080" viewBox="0 0 1080 1080" xml:space="preserve">
<desc>Created with Fabric.js 5.2.4</desc>
<defs>
</defs>
<g transform="matrix(1 0 0 1 540 540)" id="2d4cfbde-e350-4d39-93bb-8847e523fd42"  >
<rect style="stroke: none; stroke-width: 1; stroke-dasharray: none; stroke-linecap: butt; stroke-dashoffset: 0; stroke-linejoin: miter; stroke-miterlimit: 4; fill: rgb(255,255,255); fill-rule: nonzero; opacity: 1; visibility: hidden;" vector-effect="non-scaling-stroke"  x="-540" y="-540" rx="0" ry="0" width="1080" height="1080" />
</g>
<g transform="matrix(1 0 0 1 540 540)" id="532f7d8d-9722-4d7f-a16a-903e68f35b24"  >
</g>
<g transform="matrix(1.13 0 0 1.13 540 540)"  >
<path style="stroke: none; stroke-width: 1; stroke-dasharray: none; stroke-linecap: butt; stroke-dashoffset: 0; stroke-linejoin: miter; stroke-miterlimit: 4; fill: rgb(111,110,110); fill-rule: nonzero; opacity: 1;"  transform=" translate(-480, 480)" d="M 456 -600 L 776 -600 Q 749 -669 693.5 -718.5 Q 638 -768 566 -788 L 456 -600 Z M 364 -520 L 524 -796 Q 513 -798 502 -799 Q 491 -800 480 -800 Q 414 -800 357 -775 Q 300 -750 256 -708 L 364 -520 Z M 170 -400 L 388 -400 L 228 -676 Q 196 -635 178 -585.5 Q 160 -536 160 -480 Q 160 -459 162.5 -439.5 Q 165 -420 170 -400 Z M 394 -172 L 502 -360 L 184 -360 Q 211 -291 266.5 -241.5 Q 322 -192 394 -172 Z M 480 -160 Q 546 -160 603 -185 Q 660 -210 704 -252 L 596 -440 L 436 -164 Q 447 -162 457.5 -161 Q 468 -160 480 -160 Z M 732 -284 Q 764 -325 782 -374.5 Q 800 -424 800 -480 Q 800 -501 797.5 -520.5 Q 795 -540 790 -560 L 572 -560 L 732 -284 Z M 480 -480 Z M 480 -80 Q 398 -80 325 -111.5 Q 252 -143 197.5 -197.5 Q 143 -252 111.5 -325 Q 80 -398 80 -480 Q 80 -563 111.5 -635.5 Q 143 -708 197.5 -762.5 Q 252 -817 325 -848.5 Q 398 -880 480 -880 Q 563 -880 635.5 -848.5 Q 708 -817 762.5 -762.5 Q 817 -708 848.5 -635.5 Q 880 -563 880 -480 Q 880 -398 848.5 -325 Q 817 -252 762.5 -197.5 Q 708 -143 635.5 -111.5 Q 563 -80 480 -80 Z" stroke-linecap="round" />
</g>
</svg>